<svg height="512pt" viewBox="0 -9 512 512" width="512pt" xmlns="http://www.w3.org/2000/svg"><path d="m187.867188 158.308594v-15.027344h-129.753907v255.496094h55.609375v-15.027344h-40.578125v-225.441406zm0 0"/><path d="m33.066406 140.773438c0-12.429688 10.109375-22.542969 22.542969-22.542969h178.203125v-15.027344h-178.203125c-20.71875 0-37.574219 16.851563-37.574219 37.570313v155.304687h15.03125zm0 0"/><path d="m512 94.109375v-56.535156c0-20.71875-16.855469-37.574219-37.574219-37.574219h-36.5v15.03125h36.5c12.433594 0 22.542969 10.109375 22.542969 22.542969v22.542969h-155.300781v-22.542969c0-12.433594 10.113281-22.542969 22.542969-22.542969h58.683593v-15.03125h-58.683593c-20.71875 0-37.574219 16.855469-37.574219 37.574219v65.628906h-77.792969v15.027344h77.792969v25.050781h-123.742188v15.027344h123.742188v159.8125c0 20.71875 16.855469 37.574218 37.574219 37.574218h74.644531v28.054688h-310.105469v15.027344h325.136719v-43.082032h20.539062c1.527344 0 3.03125-.101562 4.507813-.28125v68.414063h-159.308594v7.515625c0 3.589844-2.921875 6.511719-6.511719 6.511719h-114.226562c-3.589844 0-6.511719-2.921875-6.511719-6.511719v-7.515625h-108.996094v15.027344h95.320313c3.054687 8.1875 10.953125 14.027343 20.1875 14.027343h114.226562c9.234375 0 17.132813-5.839843 20.1875-14.027343h163.667969v18.539062c0 12.429688-10.109375 22.542969-22.542969 22.542969h-436.851562c-12.433594 0-22.542969-10.113281-22.542969-22.542969v-18.539062h53.316406v-15.027344h-35.28125v-112.71875h-15.03125v112.71875h-18.035156v33.566406c0 20.71875 16.855469 37.570313 37.574219 37.570313h436.851562c20.71875 0 37.574219-16.851563 37.574219-37.570313v-33.566406h-18.035156v-73.625c10.808594-6.605469 18.035156-18.515625 18.035156-32.082031v-208.980469h-15.03125v141.347656h-155.300781v-175.339843h155.300781v18.960937zm-15.03125 171.410156v52.601563c0 12.429687-10.109375 22.542968-22.542969 22.542968h-110.214843c-12.429688 0-22.542969-10.113281-22.542969-22.542968v-52.601563zm0 0"/><path d="m441.863281 280.546875h-45.089843v45.089844h45.089843zm-15.03125 30.058594h-15.027343v-15.027344h15.027343zm0 0"/><path d="m267.523438 256c0-37.292969-30.339844-67.632812-67.632813-67.632812s-67.632813 30.339843-67.632813 67.632812 30.339844 67.632812 67.632813 67.632812 67.632813-30.339843 67.632813-67.632812zm-67.632813 52.601562c-29.007813 0-52.601563-23.597656-52.601563-52.601562s23.59375-52.601562 52.601563-52.601562c29.003906 0 52.601563 23.597656 52.601563 52.601562s-23.597657 52.601562-52.601563 52.601562zm0 0"/><path d="m356.695312 162.816406c0 34.53125 28.09375 62.625 62.625 62.625 34.527344 0 62.621094-28.09375 62.621094-62.625 0-34.527344-28.09375-62.621094-62.621094-62.621094-34.53125 0-62.625 28.09375-62.625 62.621094zm110.214844 0c0 26.242188-21.347656 47.59375-47.589844 47.59375-26.242187 0-47.59375-21.351562-47.59375-47.59375 0-26.242187 21.351563-47.589844 47.59375-47.589844 26.242188 0 47.589844 21.347657 47.589844 47.589844zm0 0"/><path d="m369.222656 30.058594h15.027344v15.03125h-15.027344zm0 0"/><path d="m454.386719 30.058594h15.03125v15.03125h-15.03125zm0 0"/><path d="m399.28125 30.058594h40.078125v15.03125h-40.078125zm0 0"/><path d="m192.375 338.660156h15.03125v15.03125h-15.03125zm0 0"/><path d="m222.433594 338.660156h15.03125v15.03125h-15.03125zm0 0"/><path d="m162.316406 338.660156h15.03125v15.03125h-15.03125zm0 0"/><path d="m37.574219 451.882812h40.078125v15.027344h-40.078125zm0 0"/><path d="m92.679688 451.882812h15.03125v15.027344h-15.03125zm0 0"/><path d="m188.867188 267.417969-14.722657-14.726563-10.628906 10.625 25.351563 25.351563 47.398437-47.394531-10.628906-10.625zm0 0"/><path d="m395.574219 157.503906-10.625 10.628906 25.351562 25.351563 43.386719-43.386719-10.625-10.628906-32.761719 32.761719zm0 0"/></svg>