<svg id="Capa_1" enable-background="new 0 0 512 512" height="512" viewBox="0 0 512 512" width="512" xmlns="http://www.w3.org/2000/svg"><circle cx="48.917" cy="53.967" r="10.102"/><circle cx="90.333" cy="53.967" r="10.102"/><circle cx="131.75" cy="53.967" r="10.102"/><path d="m484.5 16.163h-457c-15.164 0-27.5 12.336-27.5 27.5v162.837c0 4.142 3.357 7.5 7.5 7.5s7.5-3.358 7.5-7.5v-114.728h482v34.811c0 4.142 3.357 7.5 7.5 7.5s7.5-3.358 7.5-7.5v-82.92c0-15.164-12.336-27.5-27.5-27.5zm-469.5 60.609v-33.11c0-6.893 5.607-12.5 12.5-12.5h457c6.893 0 12.5 5.607 12.5 12.5v33.11z"/><path d="m504.5 154c-4.143 0-7.5 3.358-7.5 7.5v207.841c0 6.893-5.607 12.5-12.5 12.5h-457c-6.893 0-12.5-5.607-12.5-12.5v-127.758c0-4.142-3.357-7.5-7.5-7.5s-7.5 3.358-7.5 7.5v127.758c0 15.164 12.336 27.5 27.5 27.5h457c15.164 0 27.5-12.336 27.5-27.5v-207.841c0-4.142-3.357-7.5-7.5-7.5z"/><path d="m230.62 151.372h50.508c4.143 0 7.5-3.358 7.5-7.5s-3.357-7.5-7.5-7.5h-50.508c-4.143 0-7.5 3.358-7.5 7.5s3.358 7.5 7.5 7.5z"/><path d="m288.628 174.177c0-4.142-3.357-7.5-7.5-7.5h-50.508c-4.143 0-7.5 3.358-7.5 7.5s3.357 7.5 7.5 7.5h50.508c4.143 0 7.5-3.358 7.5-7.5z"/><path d="m459.043 422.248h-137.605c-4.143 0-7.5 3.358-7.5 7.5s3.357 7.5 7.5 7.5h61.414v14.294h-281.407c-4.143 0-7.5 3.358-7.5 7.5s3.357 7.5 7.5 7.5h281.406v14.295h-291.835l-26.304-21.795 26.304-21.794h195.609c4.143 0 7.5-3.358 7.5-7.5s-3.357-7.5-7.5-7.5h-198.312c-1.747 0-3.439.61-4.785 1.725l-35.355 29.294c-1.72 1.425-2.715 3.542-2.715 5.775s.995 4.35 2.715 5.775l35.355 29.295c1.346 1.115 3.038 1.725 4.785 1.725h370.73c4.143 0 7.5-3.358 7.5-7.5v-58.589c0-4.142-3.357-7.5-7.5-7.5zm-7.5 58.589h-53.691v-43.589h53.691z"/><path d="m102.455 227.287c-4.143 0-7.5 3.358-7.5 7.5v29.876h-43.008c-4.143 0-7.5 3.358-7.5 7.5v80.813c0 4.142 3.357 7.5 7.5 7.5h101.016c4.143 0 7.5-3.358 7.5-7.5v-80.813c0-4.142-3.357-7.5-7.5-7.5h-43.008v-22.376h138.545v22.376h-43.008c-4.143 0-7.5 3.358-7.5 7.5v80.813c0 4.142 3.357 7.5 7.5 7.5h101.016c4.143 0 7.5-3.358 7.5-7.5v-80.813c0-4.142-3.357-7.5-7.5-7.5h-43.008v-22.376h138.545v22.376h-43.008c-4.143 0-7.5 3.358-7.5 7.5v80.813c0 4.142 3.357 7.5 7.5 7.5h101.016c4.143 0 7.5-3.358 7.5-7.5v-80.813c0-4.142-3.357-7.5-7.5-7.5h-43.008v-29.876c0-4.142-3.357-7.5-7.5-7.5h-146.045v-20.356h43.008c4.143 0 7.5-3.358 7.5-7.5v-80.813c0-4.142-3.357-7.5-7.5-7.5h-101.016c-4.143 0-7.5 3.358-7.5 7.5v80.813c0 4.142 3.357 7.5 7.5 7.5h43.008v20.356zm43.008 118.189h-86.016v-65.813h86.016zm153.545 0h-86.016v-65.813h86.016zm153.545 0h-86.016v-65.813h86.016zm-239.561-219.358h86.016v65.813h-86.016z"/><path d="m376.791 297.417c0 4.142 3.357 7.5 7.5 7.5h50.508c4.143 0 7.5-3.358 7.5-7.5s-3.357-7.5-7.5-7.5h-50.508c-4.143 0-7.5 3.357-7.5 7.5z"/><path d="m434.799 320.222h-50.508c-4.143 0-7.5 3.358-7.5 7.5s3.357 7.5 7.5 7.5h50.508c4.143 0 7.5-3.358 7.5-7.5s-3.358-7.5-7.5-7.5z"/><path d="m223.246 297.417c0 4.142 3.357 7.5 7.5 7.5h50.508c4.143 0 7.5-3.358 7.5-7.5s-3.357-7.5-7.5-7.5h-50.508c-4.142 0-7.5 3.357-7.5 7.5z"/><path d="m281.254 320.222h-50.508c-4.143 0-7.5 3.358-7.5 7.5s3.357 7.5 7.5 7.5h50.508c4.143 0 7.5-3.358 7.5-7.5s-3.358-7.5-7.5-7.5z"/><path d="m69.701 297.417c0 4.142 3.357 7.5 7.5 7.5h50.508c4.143 0 7.5-3.358 7.5-7.5s-3.357-7.5-7.5-7.5h-50.508c-4.142 0-7.5 3.357-7.5 7.5z"/><path d="m127.709 320.222h-50.508c-4.143 0-7.5 3.358-7.5 7.5s3.357 7.5 7.5 7.5h50.508c4.143 0 7.5-3.358 7.5-7.5s-3.357-7.5-7.5-7.5z"/></svg>