<svg id="Capa_1" enable-background="new 0 0 510.25 510.25" height="512" viewBox="0 0 510.25 510.25" width="512" xmlns="http://www.w3.org/2000/svg"><g><path d="m406.479 97.295c-6.048 0-12.082.533-18.016 1.588-24.246-66.178-93.588-107.43-163.313-97.381-59.67 8.599-109.656 53.277-124.703 111.688l14.525 3.742c15.668-60.816 72.938-103.704 135.671-101.917 62.03 1.766 109.635 44.052 127.849 101.563 29.372-7.303 58.861-4.35 82.987 15.257 22.908 18.616 35.185 48.288 31.754 77.652-3.583 30.666-23.489 57.401-51.535 70.106-16.987 7.696-33.334 6.702-51.52 6.702v15c18.289 0 34.813.86 52.277-5.76 35.39-13.414 56.808-40.285 64.089-74.43 13.377-62.734-35.887-123.81-100.065-123.81z"/><path d="m73.233 285.433c-46.849-9.912-71.13-64.846-46.91-106.156 25.001-42.642 82.841-45.928 115.494-10.752l10.9-10.305c-12.798-13.761-28.642-23.912-47.235-27.692l-.008.038c-63.546-11.73-120.174 48.542-99.721 111.408 9.369 28.798 34.547 52.446 64.586 58.178 16.14 3.08 33.489 1.683 49.84 1.683v-15c-15.546 0-31.536 1.006-46.946-1.402z"/><path d="m165.178 375.584h15v15h-15z"/><path d="m195.178 375.584h15v15h-15z"/><path d="m285.178 375.584h60v15h-60z"/><path d="m248.174 435.251h15.001v15h-15.001z"/><path d="m165.178 465.251h15v15h-15z"/><path d="m195.178 465.251h15v15h-15z"/><path d="m285.178 465.251h60v15h-60z"/><path d="m248.174 315.917h15.001v15h-15.001z"/><path d="m165.178 285.918h15v15h-15z"/><path d="m195.178 285.918h15v15h-15z"/><path d="m285.178 285.918h60v15h-60z"/><path d="m307.678 195.958h23.306c3.208 8.592 11.497 14.728 21.194 14.728 12.471 0 22.616-10.146 22.616-22.616s-10.146-22.616-22.616-22.616c-9.987 0-18.476 6.509-21.464 15.505h-38.036v74.96h-15v-110.359l16.425-16.424c3.119 1.625 6.659 2.55 10.413 2.55 12.471 0 22.616-10.146 22.616-22.616s-10.146-22.616-22.616-22.616-22.616 10.145-22.616 22.616c0 3.246.693 6.332 1.93 9.125l-21.151 21.152v116.571h-15v-159.904l-19.972-19.973c.938-2.48 1.455-5.166 1.455-7.971 0-12.471-10.146-22.616-22.616-22.616s-22.618 10.146-22.618 22.617 10.146 22.616 22.616 22.616c4.181 0 8.098-1.145 11.462-3.131l14.672 14.671v153.691h-15v-60.632h-38.113c-3.215-8.58-11.497-14.705-21.185-14.705-12.471 0-22.616 10.146-22.616 22.616s10.146 22.616 22.616 22.616c9.995 0 18.49-6.52 21.472-15.527h22.826v45.632h-67.333v74.999h15.332v14.668h-15.332v74.999h15.332v14.667h-15.332v74.999h239.666v-74.999h-14.332v-14.667h14.332v-74.999h-14.332v-14.668h14.332v-74.999h-67.333zm44.5-15.504c4.199 0 7.616 3.417 7.616 7.616s-3.417 7.616-7.616 7.616-7.616-3.417-7.616-7.616 3.417-7.616 7.616-7.616zm-47.662-79c4.199 0 7.616 3.417 7.616 7.616s-3.417 7.616-7.616 7.616-7.616-3.417-7.616-7.616 3.417-7.616 7.616-7.616zm-105.588-33.383c0-4.199 3.417-7.616 7.616-7.616s7.616 3.417 7.616 7.616-3.417 7.616-7.616 7.616-7.616-3.417-7.616-7.616zm-40.547 142.743c-4.199 0-7.616-3.417-7.616-7.616s3.417-7.616 7.616-7.616 7.616 3.417 7.616 7.616-3.417 7.616-7.616 7.616zm-8.036 149.771h209.666v44.999h-209.666zm195.334 74.666h-67.505v15h81.837v44.999h-209.666v-44.999h82.828v-15h-67.496v-14.667h180.002zm14.332-119.334h-81.837v15h67.505v14.668h-180.002v-14.668h67.496v-15h-82.828v-44.999h209.666z"/></g></svg>