<svg xmlns="http://www.w3.org/2000/svg" height="937pt" version="1.1" viewBox="-8 0 937 937.5" width="937pt">
<g id="surface1">
<path d="M 859.625 0 L 140.875 0 C 106.359375 0 78.375 27.984375 78.375 62.5 L 78.375 437.5 L 109.625 437.5 L 109.625 62.5 C 109.625 45.238281 123.613281 31.25 140.875 31.25 L 859.625 31.25 C 876.886719 31.25 890.875 45.238281 890.875 62.5 L 890.875 687.5 C 890.875 704.761719 876.886719 718.75 859.625 718.75 L 531.5 718.75 L 531.5 750 L 859.625 750 C 894.140625 750 922.125 722.015625 922.125 687.5 L 922.125 62.5 C 922.125 27.984375 894.140625 0 859.625 0 Z M 859.625 0 " style=" stroke:none;fill-rule:nonzero;fill:rgb(0%,0%,0%);fill-opacity:1;" />
<path d="M 140.875 62.5 L 172.125 62.5 L 172.125 93.75 L 140.875 93.75 Z M 140.875 62.5 " style=" stroke:none;fill-rule:nonzero;fill:rgb(0%,0%,0%);fill-opacity:1;" />
<path d="M 203.375 62.5 L 234.625 62.5 L 234.625 93.75 L 203.375 93.75 Z M 203.375 62.5 " style=" stroke:none;fill-rule:nonzero;fill:rgb(0%,0%,0%);fill-opacity:1;" />
<path d="M 265.875 62.5 L 297.125 62.5 L 297.125 93.75 L 265.875 93.75 Z M 265.875 62.5 " style=" stroke:none;fill-rule:nonzero;fill:rgb(0%,0%,0%);fill-opacity:1;" />
<path d="M 140.875 125 L 859.625 125 L 859.625 156.25 L 140.875 156.25 Z M 140.875 125 " style=" stroke:none;fill-rule:nonzero;fill:rgb(0%,0%,0%);fill-opacity:1;" />
<path d="M 140.875 375 C 140.875 383.632812 147.867188 390.625 156.5 390.625 L 344 390.625 C 352.632812 390.625 359.625 383.632812 359.625 375 L 359.625 250 C 359.625 241.367188 352.632812 234.375 344 234.375 L 272.34375 234.375 L 245.671875 207.703125 C 242.742188 204.773438 238.769531 203.125 234.625 203.125 L 156.5 203.125 C 147.867188 203.125 140.875 210.117188 140.875 218.75 Z M 172.125 234.375 L 228.15625 234.375 L 254.828125 261.046875 C 257.757812 263.976562 261.730469 265.625 265.875 265.625 L 328.375 265.625 L 328.375 359.375 L 172.125 359.375 Z M 172.125 234.375 " style=" stroke:none;fill-rule:nonzero;fill:rgb(0%,0%,0%);fill-opacity:1;" />
<path d="M 609.625 250 C 609.625 241.367188 602.632812 234.375 594 234.375 L 522.34375 234.375 L 495.671875 207.703125 C 492.742188 204.773438 488.769531 203.125 484.625 203.125 L 406.5 203.125 C 397.867188 203.125 390.875 210.117188 390.875 218.75 L 390.875 375 C 390.875 383.632812 397.867188 390.625 406.5 390.625 L 594 390.625 C 602.632812 390.625 609.625 383.632812 609.625 375 Z M 578.375 359.375 L 422.125 359.375 L 422.125 234.375 L 478.15625 234.375 L 504.828125 261.046875 C 507.757812 263.976562 511.730469 265.625 515.875 265.625 L 578.375 265.625 Z M 578.375 359.375 " style=" stroke:none;fill-rule:nonzero;fill:rgb(0%,0%,0%);fill-opacity:1;" />
<path d="M 859.625 250 C 859.625 241.367188 852.632812 234.375 844 234.375 L 772.34375 234.375 L 745.671875 207.703125 C 742.742188 204.773438 738.769531 203.125 734.625 203.125 L 656.5 203.125 C 647.867188 203.125 640.875 210.117188 640.875 218.75 L 640.875 375 C 640.875 383.632812 647.867188 390.625 656.5 390.625 L 844 390.625 C 852.632812 390.625 859.625 383.632812 859.625 375 Z M 828.375 359.375 L 672.125 359.375 L 672.125 234.375 L 728.15625 234.375 L 754.828125 261.046875 C 757.757812 263.976562 761.730469 265.625 765.875 265.625 L 828.375 265.625 Z M 828.375 359.375 " style=" stroke:none;fill-rule:nonzero;fill:rgb(0%,0%,0%);fill-opacity:1;" />
<path d="M 531.5 609.375 L 531.5 640.625 L 594 640.625 C 602.632812 640.625 609.625 633.632812 609.625 625 L 609.625 500 C 609.625 491.367188 602.632812 484.375 594 484.375 L 522.34375 484.375 L 495.671875 457.703125 C 492.742188 454.773438 488.769531 453.125 484.625 453.125 L 437.75 453.125 L 437.75 484.375 L 478.15625 484.375 L 504.828125 511.046875 C 507.757812 513.976562 511.730469 515.625 515.875 515.625 L 578.375 515.625 L 578.375 609.375 Z M 531.5 609.375 " style=" stroke:none;fill-rule:nonzero;fill:rgb(0%,0%,0%);fill-opacity:1;" />
<path d="M 844 484.375 L 772.34375 484.375 L 745.671875 457.703125 C 742.742188 454.773438 738.769531 453.125 734.625 453.125 L 656.5 453.125 C 647.867188 453.125 640.875 460.117188 640.875 468.75 L 640.875 625 C 640.875 633.632812 647.867188 640.625 656.5 640.625 L 844 640.625 C 852.632812 640.625 859.625 633.632812 859.625 625 L 859.625 500 C 859.625 491.367188 852.632812 484.375 844 484.375 Z M 828.375 609.375 L 672.125 609.375 L 672.125 484.375 L 728.15625 484.375 L 754.828125 511.046875 C 757.757812 513.976562 761.730469 515.625 765.875 515.625 L 828.375 515.625 Z M 828.375 609.375 " style=" stroke:none;fill-rule:nonzero;fill:rgb(0%,0%,0%);fill-opacity:1;" />
<path d="M 57.171875 625 L 15.875 625 C 7.242188 625 0.25 631.992188 0.25 640.625 L 0.25 734.375 C 0.25 743.007812 7.242188 750 15.875 750 L 57.171875 750 C 60.484375 760.257812 64.609375 770.238281 69.515625 779.84375 L 40.328125 809.027344 C 34.234375 815.132812 34.234375 825.019531 40.328125 831.125 L 106.625 897.421875 C 112.730469 903.515625 122.617188 903.515625 128.722656 897.421875 L 157.90625 868.234375 C 167.511719 873.140625 177.492188 877.265625 187.75 880.578125 L 187.75 921.875 C 187.75 930.507812 194.742188 937.5 203.375 937.5 L 297.125 937.5 C 305.757812 937.5 312.75 930.507812 312.75 921.875 L 312.75 880.578125 C 323.007812 877.265625 332.988281 873.140625 342.59375 868.234375 L 371.777344 897.421875 C 377.882812 903.515625 387.769531 903.515625 393.875 897.421875 L 460.171875 831.125 C 466.265625 825.019531 466.265625 815.132812 460.171875 809.027344 L 430.984375 779.84375 C 435.890625 770.238281 440.015625 760.257812 443.328125 750 L 484.625 750 C 493.257812 750 500.25 743.007812 500.25 734.375 L 500.25 640.625 C 500.25 631.992188 493.257812 625 484.625 625 L 443.328125 625 C 440.015625 614.742188 435.890625 604.761719 430.984375 595.15625 L 460.171875 565.972656 C 466.265625 559.867188 466.265625 549.980469 460.171875 543.875 L 393.875 477.578125 C 387.769531 471.484375 377.882812 471.484375 371.777344 477.578125 L 342.59375 506.765625 C 332.988281 501.859375 323.007812 497.734375 312.75 494.421875 L 312.75 453.125 C 312.75 444.492188 305.757812 437.5 297.125 437.5 L 203.375 437.5 C 194.742188 437.5 187.75 444.492188 187.75 453.125 L 187.75 494.421875 C 177.492188 497.734375 167.511719 501.859375 157.90625 506.765625 L 128.722656 477.578125 C 122.617188 471.484375 112.730469 471.484375 106.625 477.578125 L 40.328125 543.875 C 34.234375 549.980469 34.234375 559.867188 40.328125 565.972656 L 69.515625 595.15625 C 68.21875 597.6875 66.96875 600.269531 65.777344 602.855469 C 62.480469 610.058594 59.605469 617.457031 57.171875 625 Z M 84.03125 644.53125 C 88.019531 629.015625 94.171875 614.140625 102.3125 600.34375 C 105.933594 594.210938 104.9375 586.398438 99.90625 581.359375 L 73.46875 554.925781 L 117.675781 510.71875 L 144.109375 537.15625 C 149.148438 542.1875 156.960938 543.183594 163.09375 539.5625 C 176.890625 531.425781 191.773438 525.273438 207.28125 521.28125 C 214.175781 519.5 219 513.28125 219 506.15625 L 219 468.75 L 281.5 468.75 L 281.5 506.15625 C 281.5 513.28125 286.324219 519.5 293.21875 521.28125 C 308.726562 525.273438 323.609375 531.425781 337.40625 539.5625 C 343.539062 543.183594 351.351562 542.1875 356.390625 537.15625 L 382.824219 510.71875 L 427.03125 554.925781 L 400.59375 581.359375 C 395.5625 586.398438 394.566406 594.210938 398.1875 600.34375 C 406.324219 614.140625 412.476562 629.023438 416.46875 644.53125 C 418.25 651.425781 424.46875 656.25 431.59375 656.25 L 469 656.25 L 469 718.75 L 431.59375 718.75 C 424.46875 718.75 418.25 723.574219 416.46875 730.46875 C 412.476562 745.976562 406.324219 760.859375 398.1875 774.65625 C 394.566406 780.789062 395.5625 788.601562 400.59375 793.640625 L 427.03125 820.074219 L 382.824219 864.28125 L 356.390625 837.84375 C 351.351562 832.8125 343.539062 831.816406 337.40625 835.4375 C 323.609375 843.574219 308.726562 849.726562 293.21875 853.71875 C 286.324219 855.5 281.5 861.71875 281.5 868.84375 L 281.5 906.25 L 219 906.25 L 219 868.84375 C 219 861.71875 214.175781 855.5 207.28125 853.71875 C 191.773438 849.726562 176.890625 843.574219 163.09375 835.4375 C 156.960938 831.816406 149.148438 832.8125 144.109375 837.84375 L 117.675781 864.28125 L 73.46875 820.074219 L 99.90625 793.640625 C 104.9375 788.601562 105.933594 780.789062 102.3125 774.65625 C 94.175781 760.859375 88.023438 745.976562 84.03125 730.46875 C 82.25 723.574219 76.03125 718.75 68.90625 718.75 L 31.5 718.75 L 31.5 656.25 L 68.90625 656.25 C 76.03125 656.25 82.25 651.425781 84.03125 644.53125 Z M 84.03125 644.53125 " style=" stroke:none;fill-rule:nonzero;fill:rgb(0%,0%,0%);fill-opacity:1;" />
<path d="M 250.25 796.875 C 310.660156 796.875 359.625 747.910156 359.625 687.5 C 359.625 627.089844 310.660156 578.125 250.25 578.125 C 189.839844 578.125 140.875 627.089844 140.875 687.5 C 140.945312 747.875 189.875 796.804688 250.25 796.875 Z M 250.25 609.375 C 293.394531 609.375 328.375 644.355469 328.375 687.5 C 328.375 730.644531 293.394531 765.625 250.25 765.625 C 207.105469 765.625 172.125 730.644531 172.125 687.5 C 172.179688 644.375 207.125 609.429688 250.25 609.375 Z M 250.25 609.375 " style=" stroke:none;fill-rule:nonzero;fill:rgb(0%,0%,0%);fill-opacity:1;" />
</g>
</svg>